# xmcd
#
# Track frame offsets: 
#        150
#        18995
#        31882
#        45592
#        60767
#        77755
#        92362
#        104712
#        124937
#        136015
#        148830
#
# Disc length: 2306 seconds
#
# Revision: 6
# Processed by: cddbd v1.5.2PL0 Copyright (c) Steve Scherf et al.
# Submitted via: ExactAudioCopy v1.0b3
#
DISCID=8609000b
DTITLE=Sue Foley - Young Girl Blues
DYEAR=1992
DGENRE=Blues
TTITLE0=Queen Bee
TTITLE1=(Me and My) Chauffeur Blues
TTITLE2=Cuban Getaway
TTITLE3=Mean Old Lonesome Train
TTITLE4=Gone Blind
TTITLE5=Walkin Home
TTITLE6=But I Forgive You
TTITLE7=Off The Hook
TTITLE8=Little Mixed Up
TTITLE9=Hooked On Love
TTITLE10=Time To Travel
EXTD=LABEL =Antone's Records\nID =ANTCD0019\nUPC =049891-0019-25\nC
EXTD=OPYRIGHT =1992
EXTT0=
EXTT1=
EXTT2=
EXTT3=
EXTT4=
EXTT5=
EXTT6=
EXTT7=
EXTT8=
EXTT9=
EXTT10=
PLAYORDER=
